<svg id="Capa_1" enable-background="new 0 0 512 512" height="512" viewBox="0 0 512 512" width="512" xmlns="http://www.w3.org/2000/svg"><g id="Heart_rate"><path d="m432 280c.013-10.706-.736-21.4-2.24-32 1.406.186 2.822.293 4.24.32 11.434-.083 22.662-3.055 32.64-8.64l2-.24c7.966-1.718 14.943-6.485 19.44-13.28 5.286-7.689 8.053-16.83 7.92-26.16 0-21.2-13.28-38.4-30-39.76-28.22-7.177-57.728-7.642-86.16-1.36-9.219-6.613-19.247-12.017-29.84-16.08 2.092-3.289 4.592-6.299 7.44-8.96 4.88-4.56 22.56-1.68 34.4.64 2.316.364 9.601 1.209 12.8.96 8.124-.633 14.943-6.485 19.44-13.28 5.286-7.689 8.053-16.83 7.92-26.16 0-21.2-13.28-38.4-30-39.76-5.92-1.84-82.8-24.64-143.12 25.6-2.24 1.84-4.32 3.76-6.32 5.68l-16.08-50.48c-1.496-5.259-5.041-9.698-9.84-12.32-17.542-8.455-38.63-2.809-49.6 13.28-2.833 4.558-3.726 10.06-2.48 15.28l17.52 80.56c-.08 0-.08.08-.16.08l-25.04-78.24c-3.52-12.96-19.84-19.52-37.12-14.88s-28.08 18.48-24.8 31.12l17.76 81.6-25.36-79.2c-1.496-5.259-5.041-9.698-9.84-12.32-8.43-4.316-18.194-5.232-27.28-2.56-9.211 2.189-17.213 7.868-22.32 15.84-2.823 4.591-3.715 10.113-2.48 15.36h.08l44.48 190.4c.104 15.828 2.064 31.589 5.84 46.96h-69.84v16h74.24c28.24 88 109.28 152 165.76 152s137.52-64 165.76-152h74.24v-16h-69.84c3.855-15.71 5.815-31.824 5.84-48zm32-104c8.64 0 16 10.96 16 24s-7.36 24-16 24-16-10.96-16-24 7.36-24 16-24zm-64-104c8.64 0 16 10.96 16 24 0 12.8-7.04 23.52-15.52 23.92-.459.038-2.584.143-4.8-.96-7.875-4.872-12.379-13.726-11.68-22.96 0-13.04 7.36-24 16-24zm-209.84-22.48c-.255-1.222.006-2.496.72-3.52 3.022-4.259 7.533-7.228 12.64-8.32 4.945-1.613 10.317-1.299 15.04.88 1.199.624 2.115 1.683 2.56 2.96l18.96 59.44c-7.104 8.794-13.171 18.377-18.08 28.56-4.8.48-9.6.96-14.16 1.6zm-69.6 18.72c-.88-3.2 3.92-9.44 13.36-11.92 9.28-2.56 16.72.48 17.68 3.84l24.8 77.6c-13.069 3.767-25.578 9.255-37.2 16.32zm-35.52 163.92-33.92-144.8c0-.24-.08-.4-.08-.56-.255-1.222.006-2.496.72-3.52 3.019-4.262 7.531-7.232 12.64-8.32 4.945-1.613 10.317-1.299 15.04.88 1.199.624 2.115 1.683 2.56 2.96l31.12 97.12c-13.982 16.059-23.646 35.414-28.08 56.24zm170.96 247.84c-49.04 0-121.12-57.84-148.72-136h60.72c3.278.003 6.227-1.994 7.44-5.04l5.12-12.8 11.52 75.04c.591 4.379 4.62 7.449 8.999 6.857 3.361-.454 6.07-2.977 6.761-6.297l31.92-140.64 16.4 76.56c.717 3.219 3.309 5.685 6.56 6.24 3.255.547 6.507-.983 8.16-3.84l13.36-22.24 19.92 99.76c.734 3.61 3.839 6.253 7.52 6.4h.32c3.584.009 6.731-2.384 7.68-5.84l38.56-134.96 9.92 54.24c.693 3.789 3.988 6.546 7.84 6.56h28.72c-27.6 78.16-99.68 136-148.72 136zm153.6-152h-26.96l-14.8-81.44c-.634-3.661-3.728-6.389-7.44-6.56-3.725-.175-7.077 2.248-8.08 5.84l-38.96 136.24-17.52-87.68c-.883-4.329-5.109-7.122-9.438-6.239-2.212.451-4.131 1.817-5.282 3.759l-13.52 22.56-19.76-92.16c-.77-3.674-4.006-6.309-7.76-6.32h-.08c-3.754-.017-7.014 2.578-7.84 6.24l-30.64 134.96-9.6-62.4c-.644-4.371-4.71-7.392-9.081-6.748-2.835.418-5.231 2.321-6.279 4.988l-14 34.96h-60.16c-4.197-15.657-6.348-31.791-6.4-48 0-80.96 38-123.68 119.04-133.6-2.424 7.002-4.349 14.166-5.76 21.44-18.267 7.853-34.474 19.817-47.36 34.96-40.32 47.6-36.8 99.92-33.6 111.36l15.36-4.24c-4.232-35.11 6.842-70.345 30.4-96.72 27.636-32.236 70.798-46.603 112.24-37.36l3.36-15.68c-20.678-4.474-42.124-3.953-62.56 1.52 6.642-26.325 21.323-49.925 42-67.52 37.76-31.52 83.2-30.72 108.72-26.88-6.523 8.136-10.003 18.293-9.84 28.72.003 6.761 1.449 13.443 4.24 19.6-9.082-1.348-18.326.984-25.68 6.48-17.598 16.361-24.603 41.171-18.16 64.32l15.2-4.8c-2.36-7.88-2.36-16.28 0-24.16 48.64 18.88 72.4 59.04 72.4 122.56-.052 16.209-2.203 32.343-6.4 48zm-14.4-155.84c15.302-2.166 30.823-2.3 46.16-.4-6.194 8.1-9.49 18.044-9.36 28.24-.212 11.61 4.19 22.831 12.24 31.2-1.666.351-3.348.618-5.04.8-4.189.405-8.414.243-12.56-.48-4.872-22.283-15.744-42.81-31.44-59.36z"/></g></svg>